<svg width="33" height="2058" viewBox="0 0 33 2058" fill="none" xmlns="http://www.w3.org/2000/svg">
<rect width="31" height="2056" transform="translate(1 1)" fill="#F0F0F0"/>
<path d="M31 43H31.5H32V30.5H30V28H26.5V26H24.5V24H20V21.5H19.5V20H20H22.5V18H25.5V16H27.5V13.5H30.5V11.5H32V1H28.5V3H25.5V5H23V7H20V9.5H17V11.5H15V13.5H11V15.5H8.5V17.5H5.5V20H2.5V24H6.5V26H9.5V28.5H12V30.5H15V32.5H18V34.5H22V36.5H24.5V39H27.5V41H31V43Z" fill="black" stroke="black"/>
<path d="M3.5 129.5H2.5H1V43H3.5V45.5H5.5V47H9V49.5H12V53.5H9V56H7.5V58H5.5V60H4.5V62V70.5H5.5V72.5H6.5V74.5H8.5V77H10.5V79H21V77H22.5V74.5H24.5V72.5H25.5V70.5H24.5V68.5H18V70.5H13V68.5H11.5V64H13V62H15V60H18V58H24.5V60H27.5V62H29.5V64.5H30.5V68H32V74.5H31V79H28.5V81H26.5V83.5H24.5V85H20V87.5H20.5H24.5V89.5H27.5V91.5H29V93.5H29.5V95.5H30.5V98H32V104.5H31V106.5H29.5V108.5H28.5V110.5H26.5V112.5H15V110.5H13V108.5H12V104.5H13V102H18V104H24.5V102H26V100H24.5V98H23.5V95.5H21V94H12V96H8.5V98H6.5V100H5.5V102H4.5V112.5H5V115H6.5V117H9.5V119H11V121H12V123.5H9.5V125.5H6.5V127.5H3.5V129.5Z" fill="black" stroke="black"/>
<path d="M31 171.5H31.5H32V159H30V156.5H26.5V154.5H24.5V152.5H20V150H19.5V148.5H20H22.5V146.5H25.5V144.5H27.5V142H30.5V140H32V129.5H28.5V131.5H25.5V133.5H23V135.5H20V138H17V140H15V142H11V144H8.5V146H5.5V148.5H2.5V152.5H6.5V154.5H9.5V157H12V159H15V161H18V163H22V165H24.5V167.5H27.5V169.5H31V171.5Z" fill="black" stroke="black"/>
<path d="M3.5 258H2.5H1V171.5H3.5V174H5.5V175.5H9V178H12V182H9V184.5H7.5V186.5H5.5V188.5H4.5V190.5V199H5.5V201H6.5V203H8.5V205.5H10.5V207.5H21V205.5H22.5V203H24.5V201H25.5V199H24.5V197H18V199H13V197H11.5V192.5H13V190.5H15V188.5H18V186.5H24.5V188.5H27.5V190.5H29.5V193H30.5V196.5H32V203H31V207.5H28.5V209.5H26.5V212H24.5V213.5H20V216H20.5H24.5V218H27.5V220H29V222H29.5V224H30.5V226.5H32V233H31V235H29.5V237H28.5V239H26.5V241H15V239H13V237H12V233H13V230.5H18V232.5H24.5V230.5H26V228.5H24.5V226.5H23.5V224H21V222.5H12V224.5H8.5V226.5H6.5V228.5H5.5V230.5H4.5V241H5V243.5H6.5V245.5H9.5V247.5H11V249.5H12V252H9.5V254H6.5V256H3.5V258Z" fill="black" stroke="black"/>
<path d="M31 300H31.5H32V287.5H30V285H26.5V283H24.5V281H20V278.5H19.5V277H20H22.5V275H25.5V273H27.5V270.5H30.5V268.5H32V258H28.5V260H25.5V262H23V264H20V266.5H17V268.5H15V270.5H11V272.5H8.5V274.5H5.5V277H2.5V281H6.5V283H9.5V285.5H12V287.5H15V289.5H18V291.5H22V293.5H24.5V296H27.5V298H31V300Z" fill="black" stroke="black"/>
<path d="M3.5 386.5H2.5H1V300H3.5V302.5H5.5V304H9V306.5H12V310.5H9V313H7.5V315H5.5V317H4.5V319V327.5H5.5V329.5H6.5V331.5H8.5V334H10.5V336H21V334H22.5V331.5H24.5V329.5H25.5V327.5H24.5V325.5H18V327.5H13V325.5H11.5V321H13V319H15V317H18V315H24.5V317H27.5V319H29.5V321.5H30.5V325H32V331.5H31V336H28.5V338H26.5V340.5H24.5V342H20V344.5H20.5H24.5V346.5H27.5V348.5H29V350.5H29.5V352.5H30.5V355H32V361.5H31V363.5H29.5V365.5H28.5V367.5H26.5V369.5H15V367.5H13V365.5H12V361.5H13V359H18V361H24.5V359H26V357H24.5V355H23.5V352.5H21V351H12V353H8.5V355H6.5V357H5.5V359H4.5V369.5H5V372H6.5V374H9.5V376H11V378H12V380.5H9.5V382.5H6.5V384.5H3.5V386.5Z" fill="black" stroke="black"/>
<path d="M31 428.5H31.5H32V416H30V413.5H26.5V411.5H24.5V409.5H20V407H19.5V405.5H20H22.5V403.5H25.5V401.5H27.5V399H30.5V397H32V386.5H28.5V388.5H25.5V390.5H23V392.5H20V395H17V397H15V399H11V401H8.5V403H5.5V405.5H2.5V409.5H6.5V411.5H9.5V414H12V416H15V418H18V420H22V422H24.5V424.5H27.5V426.5H31V428.5Z" fill="black" stroke="black"/>
<path d="M3.5 515H2.5H1V428.5H3.5V431H5.5V432.5H9V435H12V439H9V441.5H7.5V443.5H5.5V445.5H4.5V447.5V456H5.5V458H6.5V460H8.5V462.5H10.5V464.5H21V462.5H22.5V460H24.5V458H25.5V456H24.5V454H18V456H13V454H11.5V449.5H13V447.5H15V445.5H18V443.5H24.5V445.5H27.5V447.5H29.5V450H30.5V453.5H32V460H31V464.5H28.5V466.5H26.5V469H24.5V470.5H20V473H20.5H24.5V475H27.5V477H29V479H29.5V481H30.5V483.5H32V490H31V492H29.5V494H28.5V496H26.5V498H15V496H13V494H12V490H13V487.5H18V489.5H24.5V487.5H26V485.5H24.5V483.5H23.5V481H21V479.5H12V481.5H8.5V483.5H6.5V485.5H5.5V487.5H4.5V498H5V500.5H6.5V502.5H9.5V504.5H11V506.5H12V509H9.5V511H6.5V513H3.5V515Z" fill="black" stroke="black"/>
<path d="M31 557H31.5H32V544.5H30V542H26.5V540H24.5V538H20V535.5H19.5V534H20H22.5V532H25.5V530H27.5V527.5H30.5V525.5H32V515H28.5V517H25.5V519H23V521H20V523.5H17V525.5H15V527.5H11V529.5H8.5V531.5H5.5V534H2.5V538H6.5V540H9.5V542.5H12V544.5H15V546.5H18V548.5H22V550.5H24.5V553H27.5V555H31V557Z" fill="black" stroke="black"/>
<path d="M3.5 643.5H2.5H1V557H3.5V559.5H5.5V561H9V563.5H12V567.5H9V570H7.5V572H5.5V574H4.5V576V584.5H5.5V586.5H6.5V588.5H8.5V591H10.5V593H21V591H22.5V588.5H24.5V586.5H25.5V584.5H24.5V582.5H18V584.5H13V582.5H11.5V578H13V576H15V574H18V572H24.5V574H27.5V576H29.5V578.5H30.5V582H32V588.5H31V593H28.5V595H26.5V597.5H24.5V599H20V601.5H20.5H24.5V603.5H27.5V605.5H29V607.5H29.5V609.5H30.5V612H32V618.5H31V620.5H29.5V622.5H28.5V624.5H26.5V626.5H15V624.5H13V622.5H12V618.5H13V616H18V618H24.5V616H26V614H24.5V612H23.5V609.5H21V608H12V610H8.5V612H6.5V614H5.5V616H4.5V626.5H5V629H6.5V631H9.5V633H11V635H12V637.5H9.5V639.5H6.5V641.5H3.5V643.5Z" fill="black" stroke="black"/>
<path d="M31 685.5H31.5H32V673H30V670.5H26.5V668.5H24.5V666.5H20V664H19.5V662.5H20H22.5V660.5H25.5V658.5H27.5V656H30.5V654H32V643.5H28.5V645.5H25.5V647.5H23V649.5H20V652H17V654H15V656H11V658H8.5V660H5.5V662.5H2.5V666.5H6.5V668.5H9.5V671H12V673H15V675H18V677H22V679H24.5V681.5H27.5V683.5H31V685.5Z" fill="black" stroke="black"/>
<path d="M3.5 772H2.5H1V685.5H3.5V688H5.5V689.5H9V692H12V696H9V698.5H7.5V700.5H5.5V702.5H4.5V704.5V713H5.5V715H6.5V717H8.5V719.5H10.5V721.5H21V719.5H22.5V717H24.5V715H25.5V713H24.5V711H18V713H13V711H11.5V706.5H13V704.5H15V702.5H18V700.5H24.5V702.5H27.5V704.5H29.5V707H30.5V710.5H32V717H31V721.5H28.5V723.5H26.5V726H24.5V727.5H20V730H20.5H24.5V732H27.5V734H29V736H29.5V738H30.5V740.5H32V747H31V749H29.5V751H28.5V753H26.5V755H15V753H13V751H12V747H13V744.5H18V746.5H24.5V744.5H26V742.5H24.5V740.5H23.5V738H21V736.5H12V738.5H8.5V740.5H6.5V742.5H5.5V744.5H4.5V755H5V757.5H6.5V759.5H9.5V761.5H11V763.5H12V766H9.5V768H6.5V770H3.5V772Z" fill="black" stroke="black"/>
<path d="M31 814H31.5H32V801.5H30V799H26.5V797H24.5V795H20V792.5H19.5V791H20H22.5V789H25.5V787H27.5V784.5H30.5V782.5H32V772H28.5V774H25.5V776H23V778H20V780.5H17V782.5H15V784.5H11V786.5H8.5V788.5H5.5V791H2.5V795H6.5V797H9.5V799.5H12V801.5H15V803.5H18V805.5H22V807.5H24.5V810H27.5V812H31V814Z" fill="black" stroke="black"/>
<path d="M3.5 900.5H2.5H1V814H3.5V816.5H5.5V818H9V820.5H12V824.5H9V827H7.5V829H5.5V831H4.5V833V841.5H5.5V843.5H6.5V845.5H8.5V848H10.5V850H21V848H22.5V845.5H24.5V843.5H25.5V841.5H24.5V839.5H18V841.5H13V839.5H11.5V835H13V833H15V831H18V829H24.5V831H27.5V833H29.5V835.5H30.5V839H32V845.5H31V850H28.5V852H26.5V854.5H24.5V856H20V858.5H20.5H24.5V860.5H27.5V862.5H29V864.5H29.5V866.5H30.5V869H32V875.5H31V877.5H29.5V879.5H28.5V881.5H26.5V883.5H15V881.5H13V879.5H12V875.5H13V873H18V875H24.5V873H26V871H24.5V869H23.5V866.5H21V865H12V867H8.5V869H6.5V871H5.5V873H4.5V883.5H5V886H6.5V888H9.5V890H11V892H12V894.5H9.5V896.5H6.5V898.5H3.5V900.5Z" fill="black" stroke="black"/>
<path d="M31 942.5H31.5H32V930H30V927.5H26.5V925.5H24.5V923.5H20V921H19.5V919.5H20H22.5V917.5H25.5V915.5H27.5V913H30.5V911H32V900.5H28.5V902.5H25.5V904.5H23V906.5H20V909H17V911H15V913H11V915H8.5V917H5.5V919.5H2.5V923.5H6.5V925.5H9.5V928H12V930H15V932H18V934H22V936H24.5V938.5H27.5V940.5H31V942.5Z" fill="black" stroke="black"/>
<path d="M3.5 1029H2.5H1V942.5H3.5V945H5.5V946.5H9V949H12V953H9V955.5H7.5V957.5H5.5V959.5H4.5V961.5V970H5.5V972H6.5V974H8.5V976.5H10.5V978.5H21V976.5H22.5V974H24.5V972H25.5V970H24.5V968H18V970H13V968H11.5V963.5H13V961.5H15V959.5H18V957.5H24.5V959.5H27.5V961.5H29.5V964H30.5V967.5H32V974H31V978.5H28.5V980.5H26.5V983H24.5V984.5H20V987H20.5H24.5V989H27.5V991H29V993H29.5V995H30.5V997.5H32V1004H31V1006H29.5V1008H28.5V1010H26.5V1012H15V1010H13V1008H12V1004H13V1001.5H18V1003.5H24.5V1001.5H26V999.5H24.5V997.5H23.5V995H21V993.5H12V995.5H8.5V997.5H6.5V999.5H5.5V1001.5H4.5V1012H5V1014.5H6.5V1016.5H9.5V1018.5H11V1020.5H12V1023H9.5V1025H6.5V1027H3.5V1029Z" fill="black" stroke="black"/>
<path d="M31 1071H31.5H32V1058.5H30V1056H26.5V1054H24.5V1052H20V1049.5H19.5V1048H20H22.5V1046H25.5V1044H27.5V1041.5H30.5V1039.5H32V1029H28.5V1031H25.5V1033H23V1035H20V1037.5H17V1039.5H15V1041.5H11V1043.5H8.5V1045.5H5.5V1048H2.5V1052H6.5V1054H9.5V1056.5H12V1058.5H15V1060.5H18V1062.5H22V1064.5H24.5V1067H27.5V1069H31V1071Z" fill="black" stroke="black"/>
<path d="M3.5 1157.5H2.5H1V1071H3.5V1073.5H5.5V1075H9V1077.5H12V1081.5H9V1084H7.5V1086H5.5V1088H4.5V1090V1098.5H5.5V1100.5H6.5V1102.5H8.5V1105H10.5V1107H21V1105H22.5V1102.5H24.5V1100.5H25.5V1098.5H24.5V1096.5H18V1098.5H13V1096.5H11.5V1092H13V1090H15V1088H18V1086H24.5V1088H27.5V1090H29.5V1092.5H30.5V1096H32V1102.5H31V1107H28.5V1109H26.5V1111.5H24.5V1113H20V1115.5H20.5H24.5V1117.5H27.5V1119.5H29V1121.5H29.5V1123.5H30.5V1126H32V1132.5H31V1134.5H29.5V1136.5H28.5V1138.5H26.5V1140.5H15V1138.5H13V1136.5H12V1132.5H13V1130H18V1132H24.5V1130H26V1128H24.5V1126H23.5V1123.5H21V1122H12V1124H8.5V1126H6.5V1128H5.5V1130H4.5V1140.5H5V1143H6.5V1145H9.5V1147H11V1149H12V1151.5H9.5V1153.5H6.5V1155.5H3.5V1157.5Z" fill="black" stroke="black"/>
<path d="M31 1199.5H31.5H32V1187H30V1184.5H26.5V1182.5H24.5V1180.5H20V1178H19.5V1176.5H20H22.5V1174.5H25.5V1172.5H27.5V1170H30.5V1168H32V1157.5H28.5V1159.5H25.5V1161.5H23V1163.5H20V1166H17V1168H15V1170H11V1172H8.5V1174H5.5V1176.5H2.5V1180.5H6.5V1182.5H9.5V1185H12V1187H15V1189H18V1191H22V1193H24.5V1195.5H27.5V1197.5H31V1199.5Z" fill="black" stroke="black"/>
<path d="M3.5 1286H2.5H1V1199.5H3.5V1202H5.5V1203.5H9V1206H12V1210H9V1212.5H7.5V1214.5H5.5V1216.5H4.5V1218.5V1227H5.5V1229H6.5V1231H8.5V1233.5H10.5V1235.5H21V1233.5H22.5V1231H24.5V1229H25.5V1227H24.5V1225H18V1227H13V1225H11.5V1220.5H13V1218.5H15V1216.5H18V1214.5H24.5V1216.5H27.5V1218.5H29.5V1221H30.5V1224.5H32V1231H31V1235.5H28.5V1237.5H26.5V1240H24.5V1241.5H20V1244H20.5H24.5V1246H27.5V1248H29V1250H29.5V1252H30.5V1254.5H32V1261H31V1263H29.5V1265H28.5V1267H26.5V1269H15V1267H13V1265H12V1261H13V1258.5H18V1260.5H24.5V1258.5H26V1256.5H24.5V1254.5H23.5V1252H21V1250.5H12V1252.5H8.5V1254.5H6.5V1256.5H5.5V1258.5H4.5V1269H5V1271.5H6.5V1273.5H9.5V1275.5H11V1277.5H12V1280H9.5V1282H6.5V1284H3.5V1286Z" fill="black" stroke="black"/>
<path d="M31 1328H31.5H32V1315.5H30V1313H26.5V1311H24.5V1309H20V1306.5H19.5V1305H20H22.5V1303H25.5V1301H27.5V1298.5H30.5V1296.5H32V1286H28.5V1288H25.5V1290H23V1292H20V1294.5H17V1296.5H15V1298.5H11V1300.5H8.5V1302.5H5.5V1305H2.5V1309H6.5V1311H9.5V1313.5H12V1315.5H15V1317.5H18V1319.5H22V1321.5H24.5V1324H27.5V1326H31V1328Z" fill="black" stroke="black"/>
<path d="M3.5 1414.5H2.5H1V1328H3.5V1330.5H5.5V1332H9V1334.5H12V1338.5H9V1341H7.5V1343H5.5V1345H4.5V1347V1355.5H5.5V1357.5H6.5V1359.5H8.5V1362H10.5V1364H21V1362H22.5V1359.5H24.5V1357.5H25.5V1355.5H24.5V1353.5H18V1355.5H13V1353.5H11.5V1349H13V1347H15V1345H18V1343H24.5V1345H27.5V1347H29.5V1349.5H30.5V1353H32V1359.5H31V1364H28.5V1366H26.5V1368.5H24.5V1370H20V1372.5H20.5H24.5V1374.5H27.5V1376.5H29V1378.5H29.5V1380.5H30.5V1383H32V1389.5H31V1391.5H29.5V1393.5H28.5V1395.5H26.5V1397.5H15V1395.5H13V1393.5H12V1389.5H13V1387H18V1389H24.5V1387H26V1385H24.5V1383H23.5V1380.5H21V1379H12V1381H8.5V1383H6.5V1385H5.5V1387H4.5V1397.5H5V1400H6.5V1402H9.5V1404H11V1406H12V1408.5H9.5V1410.5H6.5V1412.5H3.5V1414.5Z" fill="black" stroke="black"/>
<path d="M31 1456.5H31.5H32V1444H30V1441.5H26.5V1439.5H24.5V1437.5H20V1435H19.5V1433.5H20H22.5V1431.5H25.5V1429.5H27.5V1427H30.5V1425H32V1414.5H28.5V1416.5H25.5V1418.5H23V1420.5H20V1423H17V1425H15V1427H11V1429H8.5V1431H5.5V1433.5H2.5V1437.5H6.5V1439.5H9.5V1442H12V1444H15V1446H18V1448H22V1450H24.5V1452.5H27.5V1454.5H31V1456.5Z" fill="black" stroke="black"/>
<path d="M3.5 1543H2.5H1V1456.5H3.5V1459H5.5V1460.5H9V1463H12V1467H9V1469.5H7.5V1471.5H5.5V1473.5H4.5V1475.5V1484H5.5V1486H6.5V1488H8.5V1490.5H10.5V1492.5H21V1490.5H22.5V1488H24.5V1486H25.5V1484H24.5V1482H18V1484H13V1482H11.5V1477.5H13V1475.5H15V1473.5H18V1471.5H24.5V1473.5H27.5V1475.5H29.5V1478H30.5V1481.5H32V1488H31V1492.5H28.5V1494.5H26.5V1497H24.5V1498.5H20V1501H20.5H24.5V1503H27.5V1505H29V1507H29.5V1509H30.5V1511.5H32V1518H31V1520H29.5V1522H28.5V1524H26.5V1526H15V1524H13V1522H12V1518H13V1515.5H18V1517.5H24.5V1515.5H26V1513.5H24.5V1511.5H23.5V1509H21V1507.5H12V1509.5H8.5V1511.5H6.5V1513.5H5.5V1515.5H4.5V1526H5V1528.5H6.5V1530.5H9.5V1532.5H11V1534.5H12V1537H9.5V1539H6.5V1541H3.5V1543Z" fill="black" stroke="black"/>
<path d="M31 1585H31.5H32V1572.5H30V1570H26.5V1568H24.5V1566H20V1563.5H19.5V1562H20H22.5V1560H25.5V1558H27.5V1555.5H30.5V1553.5H32V1543H28.5V1545H25.5V1547H23V1549H20V1551.5H17V1553.5H15V1555.5H11V1557.5H8.5V1559.5H5.5V1562H2.5V1566H6.5V1568H9.5V1570.5H12V1572.5H15V1574.5H18V1576.5H22V1578.5H24.5V1581H27.5V1583H31V1585Z" fill="black" stroke="black"/>
<path d="M3.5 1671.5H2.5H1V1585H3.5V1587.5H5.5V1589H9V1591.5H12V1595.5H9V1598H7.5V1600H5.5V1602H4.5V1604V1612.5H5.5V1614.5H6.5V1616.5H8.5V1619H10.5V1621H21V1619H22.5V1616.5H24.5V1614.5H25.5V1612.5H24.5V1610.5H18V1612.5H13V1610.5H11.5V1606H13V1604H15V1602H18V1600H24.5V1602H27.5V1604H29.5V1606.5H30.5V1610H32V1616.5H31V1621H28.5V1623H26.5V1625.5H24.5V1627H20V1629.5H20.5H24.5V1631.5H27.5V1633.5H29V1635.5H29.5V1637.5H30.5V1640H32V1646.5H31V1648.5H29.5V1650.5H28.5V1652.5H26.5V1654.5H15V1652.5H13V1650.5H12V1646.5H13V1644H18V1646H24.5V1644H26V1642H24.5V1640H23.5V1637.5H21V1636H12V1638H8.5V1640H6.5V1642H5.5V1644H4.5V1654.5H5V1657H6.5V1659H9.5V1661H11V1663H12V1665.5H9.5V1667.5H6.5V1669.5H3.5V1671.5Z" fill="black" stroke="black"/>
<path d="M31 1713.5H31.5H32V1701H30V1698.5H26.5V1696.5H24.5V1694.5H20V1692H19.5V1690.5H20H22.5V1688.5H25.5V1686.5H27.5V1684H30.5V1682H32V1671.5H28.5V1673.5H25.5V1675.5H23V1677.5H20V1680H17V1682H15V1684H11V1686H8.5V1688H5.5V1690.5H2.5V1694.5H6.5V1696.5H9.5V1699H12V1701H15V1703H18V1705H22V1707H24.5V1709.5H27.5V1711.5H31V1713.5Z" fill="black" stroke="black"/>
<path d="M3.5 1800H2.5H1V1713.5H3.5V1716H5.5V1717.5H9V1720H12V1724H9V1726.5H7.5V1728.5H5.5V1730.5H4.5V1732.5V1741H5.5V1743H6.5V1745H8.5V1747.5H10.5V1749.5H21V1747.5H22.5V1745H24.5V1743H25.5V1741H24.5V1739H18V1741H13V1739H11.5V1734.5H13V1732.5H15V1730.5H18V1728.5H24.5V1730.5H27.5V1732.5H29.5V1735H30.5V1738.5H32V1745H31V1749.5H28.5V1751.5H26.5V1754H24.5V1755.5H20V1758H20.5H24.5V1760H27.5V1762H29V1764H29.5V1766H30.5V1768.5H32V1775H31V1777H29.5V1779H28.5V1781H26.5V1783H15V1781H13V1779H12V1775H13V1772.5H18V1774.5H24.5V1772.5H26V1770.5H24.5V1768.5H23.5V1766H21V1764.5H12V1766.5H8.5V1768.5H6.5V1770.5H5.5V1772.5H4.5V1783H5V1785.5H6.5V1787.5H9.5V1789.5H11V1791.5H12V1794H9.5V1796H6.5V1798H3.5V1800Z" fill="black" stroke="black"/>
<path d="M31 1842H31.5H32V1829.5H30V1827H26.5V1825H24.5V1823H20V1820.5H19.5V1819H20H22.5V1817H25.5V1815H27.5V1812.5H30.5V1810.5H32V1800H28.5V1802H25.5V1804H23V1806H20V1808.5H17V1810.5H15V1812.5H11V1814.5H8.5V1816.5H5.5V1819H2.5V1823H6.5V1825H9.5V1827.5H12V1829.5H15V1831.5H18V1833.5H22V1835.5H24.5V1838H27.5V1840H31V1842Z" fill="black" stroke="black"/>
<path d="M3.5 1928.5H2.5H1V1842H3.5V1844.5H5.5V1846H9V1848.5H12V1852.5H9V1855H7.5V1857H5.5V1859H4.5V1861V1869.5H5.5V1871.5H6.5V1873.5H8.5V1876H10.5V1878H21V1876H22.5V1873.5H24.5V1871.5H25.5V1869.5H24.5V1867.5H18V1869.5H13V1867.5H11.5V1863H13V1861H15V1859H18V1857H24.5V1859H27.5V1861H29.5V1863.5H30.5V1867H32V1873.5H31V1878H28.5V1880H26.5V1882.5H24.5V1884H20V1886.5H20.5H24.5V1888.5H27.5V1890.5H29V1892.5H29.5V1894.5H30.5V1897H32V1903.5H31V1905.5H29.5V1907.5H28.5V1909.5H26.5V1911.5H15V1909.5H13V1907.5H12V1903.5H13V1901H18V1903H24.5V1901H26V1899H24.5V1897H23.5V1894.5H21V1893H12V1895H8.5V1897H6.5V1899H5.5V1901H4.5V1911.5H5V1914H6.5V1916H9.5V1918H11V1920H12V1922.5H9.5V1924.5H6.5V1926.5H3.5V1928.5Z" fill="black" stroke="black"/>
<path d="M31 1970.5H31.5H32V1958H30V1955.5H26.5V1953.5H24.5V1951.5H20V1949H19.5V1947.5H20H22.5V1945.5H25.5V1943.5H27.5V1941H30.5V1939H32V1928.5H28.5V1930.5H25.5V1932.5H23V1934.5H20V1937H17V1939H15V1941H11V1943H8.5V1945H5.5V1947.5H2.5V1951.5H6.5V1953.5H9.5V1956H12V1958H15V1960H18V1962H22V1964H24.5V1966.5H27.5V1968.5H31V1970.5Z" fill="black" stroke="black"/>
<path d="M3.5 2057H2.5H1V1970.5H3.5V1973H5.5V1974.5H9V1977H12V1981H9V1983.5H7.5V1985.5H5.5V1987.5H4.5V1989.5V1998H5.5V2000H6.5V2002H8.5V2004.5H10.5V2006.5H21V2004.5H22.5V2002H24.5V2000H25.5V1998H24.5V1996H18V1998H13V1996H11.5V1991.5H13V1989.5H15V1987.5H18V1985.5H24.5V1987.5H27.5V1989.5H29.5V1992H30.5V1995.5H32V2002H31V2006.5H28.5V2008.5H26.5V2011H24.5V2012.5H20V2015H20.5H24.5V2017H27.5V2019H29V2021H29.5V2023H30.5V2025.5H32V2032H31V2034H29.5V2036H28.5V2038H26.5V2040H15V2038H13V2036H12V2032H13V2029.5H18V2031.5H24.5V2029.5H26V2027.5H24.5V2025.5H23.5V2023H21V2021.5H12V2023.5H8.5V2025.5H6.5V2027.5H5.5V2029.5H4.5V2040H5V2042.5H6.5V2044.5H9.5V2046.5H11V2048.5H12V2051H9.5V2053H6.5V2055H3.5V2057Z" fill="black" stroke="black"/>
</svg>
