<svg width="33" height="2058" viewBox="0 0 33 2058" fill="none" xmlns="http://www.w3.org/2000/svg">
<path d="M2 43H1.5H1V30.5H3V28H6.5V26H8.5V24H13V21.5H13.5V20H13H10.5V18H7.5V16H5.5V13.5H2.5V11.5H1V1H4.5V3H7.5V5H10V7H13V9.5H16V11.5H18V13.5H22V15.5H24.5V17.5H27.5V20H30.5V24H26.5V26H23.5V28.5H21V30.5H18V32.5H15V34.5H11V36.5H8.5V39H5.5V41H2V43Z" fill="black" stroke="black"/>
<path d="M29.5 129.5H30.5H32V43H29.5V45.5H27.5V47H24V49.5H21V53.5H24V56H25.5V58H27.5V60H28.5V62V70.5H27.5V72.5H26.5V74.5H24.5V77H22.5V79H12V77H10.5V74.5H8.5V72.5H7.5V70.5H8.5V68.5H15V70.5H20V68.5H21.5V64H20V62H18V60H15V58H8.5V60H5.5V62H3.5V64.5H2.5V68H1V74.5H2V79H4.5V81H6.5V83.5H8.5V85H13V87.5H12.5H8.5V89.5H5.5V91.5H4V93.5H3.5V95.5H2.5V98H1V104.5H2V106.5H3.5V108.5H4.5V110.5H6.5V112.5H18V110.5H20V108.5H21V104.5H20V102H15V104H8.5V102H7V100H8.5V98H9.5V95.5H12V94H21V96H24.5V98H26.5V100H27.5V102H28.5V112.5H28V115H26.5V117H23.5V119H22V121H21V123.5H23.5V125.5H26.5V127.5H29.5V129.5Z" fill="black" stroke="black"/>
<path d="M2 171.5H1.5H1V159H3V156.5H6.5V154.5H8.5V152.5H13V150H13.5V148.5H13H10.5V146.5H7.5V144.5H5.5V142H2.5V140H1V129.5H4.5V131.5H7.5V133.5H10V135.5H13V138H16V140H18V142H22V144H24.5V146H27.5V148.5H30.5V152.5H26.5V154.5H23.5V157H21V159H18V161H15V163H11V165H8.5V167.5H5.5V169.5H2V171.5Z" fill="black" stroke="black"/>
<path d="M29.5 258H30.5H32V171.5H29.5V174H27.5V175.5H24V178H21V182H24V184.5H25.5V186.5H27.5V188.5H28.5V190.5V199H27.5V201H26.5V203H24.5V205.5H22.5V207.5H12V205.5H10.5V203H8.5V201H7.5V199H8.5V197H15V199H20V197H21.5V192.5H20V190.5H18V188.5H15V186.5H8.5V188.5H5.5V190.5H3.5V193H2.5V196.5H1V203H2V207.5H4.5V209.5H6.5V212H8.5V213.5H13V216H12.5H8.5V218H5.5V220H4V222H3.5V224H2.5V226.5H1V233H2V235H3.5V237H4.5V239H6.5V241H18V239H20V237H21V233H20V230.5H15V232.5H8.5V230.5H7V228.5H8.5V226.5H9.5V224H12V222.5H21V224.5H24.5V226.5H26.5V228.5H27.5V230.5H28.5V241H28V243.5H26.5V245.5H23.5V247.5H22V249.5H21V252H23.5V254H26.5V256H29.5V258Z" fill="black" stroke="black"/>
<path d="M2 300H1.5H1V287.5H3V285H6.5V283H8.5V281H13V278.5H13.5V277H13H10.5V275H7.5V273H5.5V270.5H2.5V268.5H1V258H4.5V260H7.5V262H10V264H13V266.5H16V268.5H18V270.5H22V272.5H24.5V274.5H27.5V277H30.5V281H26.5V283H23.5V285.5H21V287.5H18V289.5H15V291.5H11V293.5H8.5V296H5.5V298H2V300Z" fill="black" stroke="black"/>
<path d="M29.5 386.5H30.5H32V300H29.5V302.5H27.5V304H24V306.5H21V310.5H24V313H25.5V315H27.5V317H28.5V319V327.5H27.5V329.5H26.5V331.5H24.5V334H22.5V336H12V334H10.5V331.5H8.5V329.5H7.5V327.5H8.5V325.5H15V327.5H20V325.5H21.5V321H20V319H18V317H15V315H8.5V317H5.5V319H3.5V321.5H2.5V325H1V331.5H2V336H4.5V338H6.5V340.5H8.5V342H13V344.5H12.5H8.5V346.5H5.5V348.5H4V350.5H3.5V352.5H2.5V355H1V361.5H2V363.5H3.5V365.5H4.5V367.5H6.5V369.5H18V367.5H20V365.5H21V361.5H20V359H15V361H8.5V359H7V357H8.5V355H9.5V352.5H12V351H21V353H24.5V355H26.5V357H27.5V359H28.5V369.5H28V372H26.5V374H23.5V376H22V378H21V380.5H23.5V382.5H26.5V384.5H29.5V386.5Z" fill="black" stroke="black"/>
<path d="M2 428.5H1.5H1V416H3V413.5H6.5V411.5H8.5V409.5H13V407H13.5V405.5H13H10.5V403.5H7.5V401.5H5.5V399H2.5V397H1V386.5H4.5V388.5H7.5V390.5H10V392.5H13V395H16V397H18V399H22V401H24.5V403H27.5V405.5H30.5V409.5H26.5V411.5H23.5V414H21V416H18V418H15V420H11V422H8.5V424.5H5.5V426.5H2V428.5Z" fill="black" stroke="black"/>
<path d="M29.5 515H30.5H32V428.5H29.5V431H27.5V432.5H24V435H21V439H24V441.5H25.5V443.5H27.5V445.5H28.5V447.5V456H27.5V458H26.5V460H24.5V462.5H22.5V464.5H12V462.5H10.5V460H8.5V458H7.5V456H8.5V454H15V456H20V454H21.5V449.5H20V447.5H18V445.5H15V443.5H8.5V445.5H5.5V447.5H3.5V450H2.5V453.5H1V460H2V464.5H4.5V466.5H6.5V469H8.5V470.5H13V473H12.5H8.5V475H5.5V477H4V479H3.5V481H2.5V483.5H1V490H2V492H3.5V494H4.5V496H6.5V498H18V496H20V494H21V490H20V487.5H15V489.5H8.5V487.5H7V485.5H8.5V483.5H9.5V481H12V479.5H21V481.5H24.5V483.5H26.5V485.5H27.5V487.5H28.5V498H28V500.5H26.5V502.5H23.5V504.5H22V506.5H21V509H23.5V511H26.5V513H29.5V515Z" fill="black" stroke="black"/>
<path d="M2 557H1.5H1V544.5H3V542H6.5V540H8.5V538H13V535.5H13.5V534H13H10.5V532H7.5V530H5.5V527.5H2.5V525.5H1V515H4.5V517H7.5V519H10V521H13V523.5H16V525.5H18V527.5H22V529.5H24.5V531.5H27.5V534H30.5V538H26.5V540H23.5V542.5H21V544.5H18V546.5H15V548.5H11V550.5H8.5V553H5.5V555H2V557Z" fill="black" stroke="black"/>
<path d="M29.5 643.5H30.5H32V557H29.5V559.5H27.5V561H24V563.5H21V567.5H24V570H25.5V572H27.5V574H28.5V576V584.5H27.5V586.5H26.5V588.5H24.5V591H22.5V593H12V591H10.5V588.5H8.5V586.5H7.5V584.5H8.5V582.5H15V584.5H20V582.5H21.5V578H20V576H18V574H15V572H8.5V574H5.5V576H3.5V578.5H2.5V582H1V588.5H2V593H4.5V595H6.5V597.5H8.5V599H13V601.5H12.5H8.5V603.5H5.5V605.5H4V607.5H3.5V609.5H2.5V612H1V618.5H2V620.5H3.5V622.5H4.5V624.5H6.5V626.5H18V624.5H20V622.5H21V618.5H20V616H15V618H8.5V616H7V614H8.5V612H9.5V609.5H12V608H21V610H24.5V612H26.5V614H27.5V616H28.5V626.5H28V629H26.5V631H23.5V633H22V635H21V637.5H23.5V639.5H26.5V641.5H29.5V643.5Z" fill="black" stroke="black"/>
<path d="M2 685.5H1.5H1V673H3V670.5H6.5V668.5H8.5V666.5H13V664H13.5V662.5H13H10.5V660.5H7.5V658.5H5.5V656H2.5V654H1V643.5H4.5V645.5H7.5V647.5H10V649.5H13V652H16V654H18V656H22V658H24.5V660H27.5V662.5H30.5V666.5H26.5V668.5H23.5V671H21V673H18V675H15V677H11V679H8.5V681.5H5.5V683.5H2V685.5Z" fill="black" stroke="black"/>
<path d="M29.5 772H30.5H32V685.5H29.5V688H27.5V689.5H24V692H21V696H24V698.5H25.5V700.5H27.5V702.5H28.5V704.5V713H27.5V715H26.5V717H24.5V719.5H22.5V721.5H12V719.5H10.5V717H8.5V715H7.5V713H8.5V711H15V713H20V711H21.5V706.5H20V704.5H18V702.5H15V700.5H8.5V702.5H5.5V704.5H3.5V707H2.5V710.5H1V717H2V721.5H4.5V723.5H6.5V726H8.5V727.5H13V730H12.5H8.5V732H5.5V734H4V736H3.5V738H2.5V740.5H1V747H2V749H3.5V751H4.5V753H6.5V755H18V753H20V751H21V747H20V744.5H15V746.5H8.5V744.5H7V742.5H8.5V740.5H9.5V738H12V736.5H21V738.5H24.5V740.5H26.5V742.5H27.5V744.5H28.5V755H28V757.5H26.5V759.5H23.5V761.5H22V763.5H21V766H23.5V768H26.5V770H29.5V772Z" fill="black" stroke="black"/>
<path d="M2 814H1.5H1V801.5H3V799H6.5V797H8.5V795H13V792.5H13.5V791H13H10.5V789H7.5V787H5.5V784.5H2.5V782.5H1V772H4.5V774H7.5V776H10V778H13V780.5H16V782.5H18V784.5H22V786.5H24.5V788.5H27.5V791H30.5V795H26.5V797H23.5V799.5H21V801.5H18V803.5H15V805.5H11V807.5H8.5V810H5.5V812H2V814Z" fill="black" stroke="black"/>
<path d="M29.5 900.5H30.5H32V814H29.5V816.5H27.5V818H24V820.5H21V824.5H24V827H25.5V829H27.5V831H28.5V833V841.5H27.5V843.5H26.5V845.5H24.5V848H22.5V850H12V848H10.5V845.5H8.5V843.5H7.5V841.5H8.5V839.5H15V841.5H20V839.5H21.5V835H20V833H18V831H15V829H8.5V831H5.5V833H3.5V835.5H2.5V839H1V845.5H2V850H4.5V852H6.5V854.5H8.5V856H13V858.5H12.5H8.5V860.5H5.5V862.5H4V864.5H3.5V866.5H2.5V869H1V875.5H2V877.5H3.5V879.5H4.5V881.5H6.5V883.5H18V881.5H20V879.5H21V875.5H20V873H15V875H8.5V873H7V871H8.5V869H9.5V866.5H12V865H21V867H24.5V869H26.5V871H27.5V873H28.5V883.5H28V886H26.5V888H23.5V890H22V892H21V894.5H23.5V896.5H26.5V898.5H29.5V900.5Z" fill="black" stroke="black"/>
<path d="M2 942.5H1.5H1V930H3V927.5H6.5V925.5H8.5V923.5H13V921H13.5V919.5H13H10.5V917.5H7.5V915.5H5.5V913H2.5V911H1V900.5H4.5V902.5H7.5V904.5H10V906.5H13V909H16V911H18V913H22V915H24.5V917H27.5V919.5H30.5V923.5H26.5V925.5H23.5V928H21V930H18V932H15V934H11V936H8.5V938.5H5.5V940.5H2V942.5Z" fill="black" stroke="black"/>
<path d="M29.5 1029H30.5H32V942.5H29.5V945H27.5V946.5H24V949H21V953H24V955.5H25.5V957.5H27.5V959.5H28.5V961.5V970H27.5V972H26.5V974H24.5V976.5H22.5V978.5H12V976.5H10.5V974H8.5V972H7.5V970H8.5V968H15V970H20V968H21.5V963.5H20V961.5H18V959.5H15V957.5H8.5V959.5H5.5V961.5H3.5V964H2.5V967.5H1V974H2V978.5H4.5V980.5H6.5V983H8.5V984.5H13V987H12.5H8.5V989H5.5V991H4V993H3.5V995H2.5V997.5H1V1004H2V1006H3.5V1008H4.5V1010H6.5V1012H18V1010H20V1008H21V1004H20V1001.5H15V1003.5H8.5V1001.5H7V999.5H8.5V997.5H9.5V995H12V993.5H21V995.5H24.5V997.5H26.5V999.5H27.5V1001.5H28.5V1012H28V1014.5H26.5V1016.5H23.5V1018.5H22V1020.5H21V1023H23.5V1025H26.5V1027H29.5V1029Z" fill="black" stroke="black"/>
<path d="M2 1071H1.5H1V1058.5H3V1056H6.5V1054H8.5V1052H13V1049.5H13.5V1048H13H10.5V1046H7.5V1044H5.5V1041.5H2.5V1039.5H1V1029H4.5V1031H7.5V1033H10V1035H13V1037.5H16V1039.5H18V1041.5H22V1043.5H24.5V1045.5H27.5V1048H30.5V1052H26.5V1054H23.5V1056.5H21V1058.5H18V1060.5H15V1062.5H11V1064.5H8.5V1067H5.5V1069H2V1071Z" fill="black" stroke="black"/>
<path d="M29.5 1157.5H30.5H32V1071H29.5V1073.5H27.5V1075H24V1077.5H21V1081.5H24V1084H25.5V1086H27.5V1088H28.5V1090V1098.5H27.5V1100.5H26.5V1102.5H24.5V1105H22.5V1107H12V1105H10.5V1102.5H8.5V1100.5H7.5V1098.5H8.5V1096.5H15V1098.5H20V1096.5H21.5V1092H20V1090H18V1088H15V1086H8.5V1088H5.5V1090H3.5V1092.5H2.5V1096H1V1102.5H2V1107H4.5V1109H6.5V1111.5H8.5V1113H13V1115.5H12.5H8.5V1117.5H5.5V1119.5H4V1121.5H3.5V1123.5H2.5V1126H1V1132.5H2V1134.5H3.5V1136.5H4.5V1138.5H6.5V1140.5H18V1138.5H20V1136.5H21V1132.5H20V1130H15V1132H8.5V1130H7V1128H8.5V1126H9.5V1123.5H12V1122H21V1124H24.5V1126H26.5V1128H27.5V1130H28.5V1140.5H28V1143H26.5V1145H23.5V1147H22V1149H21V1151.5H23.5V1153.5H26.5V1155.5H29.5V1157.5Z" fill="black" stroke="black"/>
<path d="M2 1199.5H1.5H1V1187H3V1184.5H6.5V1182.5H8.5V1180.5H13V1178H13.5V1176.5H13H10.5V1174.5H7.5V1172.5H5.5V1170H2.5V1168H1V1157.5H4.5V1159.5H7.5V1161.5H10V1163.5H13V1166H16V1168H18V1170H22V1172H24.5V1174H27.5V1176.5H30.5V1180.5H26.5V1182.5H23.5V1185H21V1187H18V1189H15V1191H11V1193H8.5V1195.5H5.5V1197.5H2V1199.5Z" fill="black" stroke="black"/>
<path d="M29.5 1286H30.5H32V1199.5H29.5V1202H27.5V1203.5H24V1206H21V1210H24V1212.5H25.5V1214.5H27.5V1216.5H28.5V1218.5V1227H27.5V1229H26.5V1231H24.5V1233.5H22.5V1235.5H12V1233.5H10.5V1231H8.5V1229H7.5V1227H8.5V1225H15V1227H20V1225H21.5V1220.5H20V1218.5H18V1216.5H15V1214.5H8.5V1216.5H5.5V1218.5H3.5V1221H2.5V1224.5H1V1231H2V1235.5H4.5V1237.5H6.5V1240H8.5V1241.5H13V1244H12.5H8.5V1246H5.5V1248H4V1250H3.5V1252H2.5V1254.5H1V1261H2V1263H3.5V1265H4.5V1267H6.5V1269H18V1267H20V1265H21V1261H20V1258.5H15V1260.5H8.5V1258.5H7V1256.5H8.5V1254.5H9.5V1252H12V1250.5H21V1252.5H24.5V1254.5H26.5V1256.5H27.5V1258.5H28.5V1269H28V1271.5H26.5V1273.5H23.5V1275.5H22V1277.5H21V1280H23.5V1282H26.5V1284H29.5V1286Z" fill="black" stroke="black"/>
<path d="M2 1328H1.5H1V1315.5H3V1313H6.5V1311H8.5V1309H13V1306.5H13.5V1305H13H10.5V1303H7.5V1301H5.5V1298.5H2.5V1296.5H1V1286H4.5V1288H7.5V1290H10V1292H13V1294.5H16V1296.5H18V1298.5H22V1300.5H24.5V1302.5H27.5V1305H30.5V1309H26.5V1311H23.5V1313.5H21V1315.5H18V1317.5H15V1319.5H11V1321.5H8.5V1324H5.5V1326H2V1328Z" fill="black" stroke="black"/>
<path d="M29.5 1414.5H30.5H32V1328H29.5V1330.5H27.5V1332H24V1334.5H21V1338.5H24V1341H25.5V1343H27.5V1345H28.5V1347V1355.5H27.5V1357.5H26.5V1359.5H24.5V1362H22.5V1364H12V1362H10.5V1359.5H8.5V1357.5H7.5V1355.5H8.5V1353.5H15V1355.5H20V1353.5H21.5V1349H20V1347H18V1345H15V1343H8.5V1345H5.5V1347H3.5V1349.5H2.5V1353H1V1359.5H2V1364H4.5V1366H6.5V1368.5H8.5V1370H13V1372.5H12.5H8.5V1374.5H5.5V1376.5H4V1378.5H3.5V1380.5H2.5V1383H1V1389.5H2V1391.5H3.5V1393.5H4.5V1395.5H6.5V1397.5H18V1395.5H20V1393.5H21V1389.5H20V1387H15V1389H8.5V1387H7V1385H8.5V1383H9.5V1380.5H12V1379H21V1381H24.5V1383H26.5V1385H27.5V1387H28.5V1397.5H28V1400H26.5V1402H23.5V1404H22V1406H21V1408.5H23.5V1410.5H26.5V1412.5H29.5V1414.5Z" fill="black" stroke="black"/>
<path d="M2 1456.5H1.5H1V1444H3V1441.5H6.5V1439.5H8.5V1437.5H13V1435H13.5V1433.5H13H10.5V1431.5H7.5V1429.5H5.5V1427H2.5V1425H1V1414.5H4.5V1416.5H7.5V1418.5H10V1420.5H13V1423H16V1425H18V1427H22V1429H24.5V1431H27.5V1433.5H30.5V1437.5H26.5V1439.5H23.5V1442H21V1444H18V1446H15V1448H11V1450H8.5V1452.5H5.5V1454.5H2V1456.5Z" fill="black" stroke="black"/>
<path d="M29.5 1543H30.5H32V1456.5H29.5V1459H27.5V1460.5H24V1463H21V1467H24V1469.5H25.5V1471.5H27.5V1473.5H28.5V1475.5V1484H27.5V1486H26.5V1488H24.5V1490.5H22.5V1492.5H12V1490.5H10.5V1488H8.5V1486H7.5V1484H8.5V1482H15V1484H20V1482H21.5V1477.5H20V1475.5H18V1473.5H15V1471.5H8.5V1473.5H5.5V1475.5H3.5V1478H2.5V1481.5H1V1488H2V1492.5H4.5V1494.5H6.5V1497H8.5V1498.5H13V1501H12.5H8.5V1503H5.5V1505H4V1507H3.5V1509H2.5V1511.5H1V1518H2V1520H3.5V1522H4.5V1524H6.5V1526H18V1524H20V1522H21V1518H20V1515.5H15V1517.5H8.5V1515.5H7V1513.5H8.5V1511.5H9.5V1509H12V1507.5H21V1509.5H24.5V1511.5H26.5V1513.5H27.5V1515.5H28.5V1526H28V1528.5H26.5V1530.5H23.5V1532.5H22V1534.5H21V1537H23.5V1539H26.5V1541H29.5V1543Z" fill="black" stroke="black"/>
<path d="M2 1585H1.5H1V1572.5H3V1570H6.5V1568H8.5V1566H13V1563.5H13.5V1562H13H10.5V1560H7.5V1558H5.5V1555.5H2.5V1553.5H1V1543H4.5V1545H7.5V1547H10V1549H13V1551.5H16V1553.5H18V1555.5H22V1557.5H24.5V1559.5H27.5V1562H30.5V1566H26.5V1568H23.5V1570.5H21V1572.5H18V1574.5H15V1576.5H11V1578.5H8.5V1581H5.5V1583H2V1585Z" fill="black" stroke="black"/>
<path d="M29.5 1671.5H30.5H32V1585H29.5V1587.5H27.5V1589H24V1591.5H21V1595.5H24V1598H25.5V1600H27.5V1602H28.5V1604V1612.5H27.5V1614.5H26.5V1616.5H24.5V1619H22.5V1621H12V1619H10.5V1616.5H8.5V1614.5H7.5V1612.5H8.5V1610.5H15V1612.5H20V1610.5H21.5V1606H20V1604H18V1602H15V1600H8.5V1602H5.5V1604H3.5V1606.5H2.5V1610H1V1616.5H2V1621H4.5V1623H6.5V1625.5H8.5V1627H13V1629.5H12.5H8.5V1631.5H5.5V1633.5H4V1635.5H3.5V1637.5H2.5V1640H1V1646.5H2V1648.5H3.5V1650.5H4.5V1652.5H6.5V1654.5H18V1652.5H20V1650.5H21V1646.5H20V1644H15V1646H8.5V1644H7V1642H8.5V1640H9.5V1637.5H12V1636H21V1638H24.5V1640H26.5V1642H27.5V1644H28.5V1654.5H28V1657H26.5V1659H23.5V1661H22V1663H21V1665.5H23.5V1667.5H26.5V1669.5H29.5V1671.5Z" fill="black" stroke="black"/>
<path d="M2 1713.5H1.5H1V1701H3V1698.5H6.5V1696.5H8.5V1694.5H13V1692H13.5V1690.5H13H10.5V1688.5H7.5V1686.5H5.5V1684H2.5V1682H1V1671.5H4.5V1673.5H7.5V1675.5H10V1677.5H13V1680H16V1682H18V1684H22V1686H24.5V1688H27.5V1690.5H30.5V1694.5H26.5V1696.5H23.5V1699H21V1701H18V1703H15V1705H11V1707H8.5V1709.5H5.5V1711.5H2V1713.5Z" fill="black" stroke="black"/>
<path d="M29.5 1800H30.5H32V1713.5H29.5V1716H27.5V1717.5H24V1720H21V1724H24V1726.5H25.5V1728.5H27.5V1730.5H28.5V1732.5V1741H27.5V1743H26.5V1745H24.5V1747.5H22.5V1749.5H12V1747.5H10.5V1745H8.5V1743H7.5V1741H8.5V1739H15V1741H20V1739H21.5V1734.5H20V1732.5H18V1730.5H15V1728.5H8.5V1730.5H5.5V1732.5H3.5V1735H2.5V1738.5H1V1745H2V1749.5H4.5V1751.5H6.5V1754H8.5V1755.5H13V1758H12.5H8.5V1760H5.5V1762H4V1764H3.5V1766H2.5V1768.5H1V1775H2V1777H3.5V1779H4.5V1781H6.5V1783H18V1781H20V1779H21V1775H20V1772.5H15V1774.5H8.5V1772.5H7V1770.5H8.5V1768.5H9.5V1766H12V1764.5H21V1766.5H24.5V1768.5H26.5V1770.5H27.5V1772.5H28.5V1783H28V1785.5H26.5V1787.5H23.5V1789.5H22V1791.5H21V1794H23.5V1796H26.5V1798H29.5V1800Z" fill="black" stroke="black"/>
<path d="M2 1842H1.5H1V1829.5H3V1827H6.5V1825H8.5V1823H13V1820.5H13.5V1819H13H10.5V1817H7.5V1815H5.5V1812.5H2.5V1810.5H1V1800H4.5V1802H7.5V1804H10V1806H13V1808.5H16V1810.5H18V1812.5H22V1814.5H24.5V1816.5H27.5V1819H30.5V1823H26.5V1825H23.5V1827.5H21V1829.5H18V1831.5H15V1833.5H11V1835.5H8.5V1838H5.5V1840H2V1842Z" fill="black" stroke="black"/>
<path d="M29.5 1928.5H30.5H32V1842H29.5V1844.5H27.5V1846H24V1848.5H21V1852.5H24V1855H25.5V1857H27.5V1859H28.5V1861V1869.5H27.5V1871.5H26.5V1873.5H24.5V1876H22.5V1878H12V1876H10.5V1873.5H8.5V1871.5H7.5V1869.5H8.5V1867.5H15V1869.5H20V1867.5H21.5V1863H20V1861H18V1859H15V1857H8.5V1859H5.5V1861H3.5V1863.5H2.5V1867H1V1873.5H2V1878H4.5V1880H6.5V1882.5H8.5V1884H13V1886.5H12.5H8.5V1888.5H5.5V1890.5H4V1892.5H3.5V1894.5H2.5V1897H1V1903.5H2V1905.5H3.5V1907.5H4.5V1909.5H6.5V1911.5H18V1909.5H20V1907.5H21V1903.5H20V1901H15V1903H8.5V1901H7V1899H8.5V1897H9.5V1894.5H12V1893H21V1895H24.5V1897H26.5V1899H27.5V1901H28.5V1911.5H28V1914H26.5V1916H23.5V1918H22V1920H21V1922.5H23.5V1924.5H26.5V1926.5H29.5V1928.5Z" fill="black" stroke="black"/>
<path d="M2 1970.5H1.5H1V1958H3V1955.5H6.5V1953.5H8.5V1951.5H13V1949H13.5V1947.5H13H10.5V1945.5H7.5V1943.5H5.5V1941H2.5V1939H1V1928.5H4.5V1930.5H7.5V1932.5H10V1934.5H13V1937H16V1939H18V1941H22V1943H24.5V1945H27.5V1947.5H30.5V1951.5H26.5V1953.5H23.5V1956H21V1958H18V1960H15V1962H11V1964H8.5V1966.5H5.5V1968.5H2V1970.5Z" fill="black" stroke="black"/>
<path d="M29.5 2057H30.5H32V1970.5H29.5V1973H27.5V1974.5H24V1977H21V1981H24V1983.5H25.5V1985.5H27.5V1987.5H28.5V1989.5V1998H27.5V2000H26.5V2002H24.5V2004.5H22.5V2006.5H12V2004.5H10.5V2002H8.5V2000H7.5V1998H8.5V1996H15V1998H20V1996H21.5V1991.5H20V1989.5H18V1987.5H15V1985.5H8.5V1987.5H5.5V1989.5H3.5V1992H2.5V1995.5H1V2002H2V2006.5H4.5V2008.5H6.5V2011H8.5V2012.5H13V2015H12.5H8.5V2017H5.5V2019H4V2021H3.5V2023H2.5V2025.5H1V2032H2V2034H3.5V2036H4.5V2038H6.5V2040H18V2038H20V2036H21V2032H20V2029.5H15V2031.5H8.5V2029.5H7V2027.5H8.5V2025.5H9.5V2023H12V2021.5H21V2023.5H24.5V2025.5H26.5V2027.5H27.5V2029.5H28.5V2040H28V2042.5H26.5V2044.5H23.5V2046.5H22V2048.5H21V2051H23.5V2053H26.5V2055H29.5V2057Z" fill="black" stroke="black"/>
</svg>
